# Blender 4.1.1
# www.blender.org
mtllib Cylinder.mtl
o Cylinder
v 0.000000 -1.053876 -2.904400
v 0.000000 1.053876 -2.904400
v 0.284681 -1.053876 -2.890414
v 0.284681 1.053876 -2.890414
v 0.566620 -1.053876 -2.848593
v 0.566620 1.053876 -2.848593
v 0.843103 -1.053876 -2.779337
v 0.843103 1.053876 -2.779337
v 1.111466 -1.053876 -2.683316
v 1.111466 1.053876 -2.683316
v 1.369125 -1.053876 -2.561452
v 1.369125 1.053876 -2.561452
v 1.613598 -1.053876 -2.414920
v 1.613598 1.053876 -2.414920
v 1.842532 -1.053876 -2.245131
v 1.842532 1.053876 -2.245131
v 2.053721 -1.053876 -2.053721
v 2.053721 1.053876 -2.053721
v 2.245131 -1.053876 -1.842532
v 2.245131 1.053876 -1.842532
v 2.414920 -1.053876 -1.613598
v 2.414920 1.053876 -1.613598
v 2.561452 -1.053876 -1.369125
v 2.561452 1.053876 -1.369125
v 2.683316 -1.053876 -1.111466
v 2.683316 1.053876 -1.111466
v 2.779337 -1.053876 -0.843103
v 2.779337 1.053876 -0.843103
v 2.848593 -1.053876 -0.566620
v 2.848593 1.053876 -0.566620
v 2.890414 -1.053876 -0.284681
v 2.890414 1.053876 -0.284681
v 2.904400 -1.053876 0.000000
v 2.904400 1.053876 0.000000
v 2.890414 -1.053876 0.284681
v 2.890414 1.053876 0.284681
v 2.848593 -1.053876 0.566620
v 2.848593 1.053876 0.566620
v 2.779337 -1.053876 0.843103
v 2.779337 1.053876 0.843103
v 2.683316 -1.053876 1.111466
v 2.683316 1.053876 1.111466
v 2.561452 -1.053876 1.369125
v 2.561452 1.053876 1.369125
v 2.414920 -1.053876 1.613598
v 2.414920 1.053876 1.613598
v 2.245131 -1.053876 1.842532
v 2.245131 1.053876 1.842532
v 2.053721 -1.053876 2.053721
v 2.053721 1.053876 2.053721
v 1.842532 -1.053876 2.245131
v 1.842532 1.053876 2.245131
v 1.613598 -1.053876 2.414920
v 1.613598 1.053876 2.414920
v 1.369125 -1.053876 2.561452
v 1.369125 1.053876 2.561452
v 1.111466 -1.053876 2.683316
v 1.111466 1.053876 2.683316
v 0.843103 -1.053876 2.779337
v 0.843103 1.053876 2.779337
v 0.566620 -1.053876 2.848593
v 0.566620 1.053876 2.848593
v 0.284681 -1.053876 2.890414
v 0.284681 1.053876 2.890414
v 0.000000 -1.053876 2.904400
v 0.000000 1.053876 2.904400
v -0.284681 -1.053876 2.890414
v -0.284681 1.053876 2.890414
v -0.566620 -1.053876 2.848593
v -0.566620 1.053876 2.848593
v -0.843103 -1.053876 2.779337
v -0.843103 1.053876 2.779337
v -1.111466 -1.053876 2.683316
v -1.111466 1.053876 2.683316
v -1.369125 -1.053876 2.561452
v -1.369125 1.053876 2.561452
v -1.613598 -1.053876 2.414920
v -1.613598 1.053876 2.414920
v -1.842532 -1.053876 2.245131
v -1.842532 1.053876 2.245131
v -2.053721 -1.053876 2.053721
v -2.053721 1.053876 2.053721
v -2.245131 -1.053876 1.842532
v -2.245131 1.053876 1.842532
v -2.414920 -1.053876 1.613598
v -2.414920 1.053876 1.613598
v -2.561452 -1.053876 1.369125
v -2.561452 1.053876 1.369125
v -2.683316 -1.053876 1.111466
v -2.683316 1.053876 1.111466
v -2.779337 -1.053876 0.843103
v -2.779337 1.053876 0.843103
v -2.848593 -1.053876 0.566620
v -2.848593 1.053876 0.566620
v -2.890414 -1.053876 0.284681
v -2.890414 1.053876 0.284681
v -2.904400 -1.053876 0.000000
v -2.904400 1.053876 0.000000
v -2.890414 -1.053876 -0.284681
v -2.890414 1.053876 -0.284681
v -2.848593 -1.053876 -0.566620
v -2.848593 1.053876 -0.566620
v -2.779337 -1.053876 -0.843103
v -2.779337 1.053876 -0.843103
v -2.683316 -1.053876 -1.111466
v -2.683316 1.053876 -1.111466
v -2.561452 -1.053876 -1.369125
v -2.561452 1.053876 -1.369125
v -2.414920 -1.053876 -1.613598
v -2.414920 1.053876 -1.613598
v -2.245131 -1.053876 -1.842532
v -2.245131 1.053876 -1.842532
v -2.053721 -1.053876 -2.053721
v -2.053721 1.053876 -2.053721
v -1.842532 -1.053876 -2.245131
v -1.842532 1.053876 -2.245131
v -1.613598 -1.053876 -2.414920
v -1.613598 1.053876 -2.414920
v -1.369125 -1.053876 -2.561452
v -1.369125 1.053876 -2.561452
v -1.111466 -1.053876 -2.683316
v -1.111466 1.053876 -2.683316
v -0.843103 -1.053876 -2.779337
v -0.843103 1.053876 -2.779337
v -0.566620 -1.053876 -2.848593
v -0.566620 1.053876 -2.848593
v -0.284681 -1.053876 -2.890414
v -0.284681 1.053876 -2.890414
v 0.000000 -1.053876 -2.503917
v 0.000000 1.053876 -2.503917
v 0.245427 -1.053876 -2.491860
v 0.245427 1.053876 -2.491860
v 0.488490 -1.053876 -2.455805
v 0.488490 1.053876 -2.455805
v 0.726849 -1.053876 -2.396100
v 0.726849 1.053876 -2.396100
v 0.958208 -1.053876 -2.313318
v 0.958208 1.053876 -2.313318
v 1.180339 -1.053876 -2.208258
v 1.180339 1.053876 -2.208258
v 1.391102 -1.053876 -2.081931
v 1.391102 1.053876 -2.081931
v 1.588469 -1.053876 -1.935555
v 1.588469 1.053876 -1.935555
v 1.770537 -1.053876 -1.770537
v 1.770537 1.053876 -1.770537
v 1.935555 -1.053876 -1.588469
v 1.935555 1.053876 -1.588469
v 2.081931 -1.053876 -1.391102
v 2.081931 1.053876 -1.391102
v 2.208258 -1.053876 -1.180339
v 2.208258 1.053876 -1.180339
v 2.313318 -1.053876 -0.958208
v 2.313318 1.053876 -0.958208
v 2.396100 -1.053876 -0.726849
v 2.396100 1.053876 -0.726849
v 2.455805 -1.053876 -0.488490
v 2.455805 1.053876 -0.488490
v 2.491860 -1.053876 -0.245427
v 2.491860 1.053876 -0.245427
v 2.503917 -1.053876 0.000000
v 2.503917 1.053876 0.000000
v 2.491860 -1.053876 0.245427
v 2.491860 1.053876 0.245427
v 2.455805 -1.053876 0.488490
v 2.455805 1.053876 0.488490
v 2.396100 -1.053876 0.726849
v 2.396100 1.053876 0.726849
v 2.313318 -1.053876 0.958208
v 2.313318 1.053876 0.958208
v 2.208258 -1.053876 1.180339
v 2.208258 1.053876 1.180339
v 2.081931 -1.053876 1.391102
v 2.081931 1.053876 1.391102
v 1.935555 -1.053876 1.588469
v 1.935555 1.053876 1.588469
v 1.770537 -1.053876 1.770537
v 1.770537 1.053876 1.770537
v 1.588469 -1.053876 1.935555
v 1.588469 1.053876 1.935555
v 1.391102 -1.053876 2.081931
v 1.391102 1.053876 2.081931
v 1.180339 -1.053876 2.208258
v 1.180339 1.053876 2.208258
v 0.958208 -1.053876 2.313318
v 0.958208 1.053876 2.313318
v 0.726849 -1.053876 2.396100
v 0.726849 1.053876 2.396100
v 0.488490 -1.053876 2.455805
v 0.488490 1.053876 2.455805
v 0.245427 -1.053876 2.491860
v 0.245427 1.053876 2.491860
v 0.000000 -1.053876 2.503917
v 0.000000 1.053876 2.503917
v -0.245427 -1.053876 2.491860
v -0.245427 1.053876 2.491860
v -0.488490 -1.053876 2.455805
v -0.488490 1.053876 2.455805
v -0.726849 -1.053876 2.396100
v -0.726849 1.053876 2.396100
v -0.958208 -1.053876 2.313318
v -0.958208 1.053876 2.313318
v -1.180339 -1.053876 2.208258
v -1.180339 1.053876 2.208258
v -1.391102 -1.053876 2.081931
v -1.391102 1.053876 2.081931
v -1.588469 -1.053876 1.935555
v -1.588469 1.053876 1.935555
v -1.770537 -1.053876 1.770537
v -1.770537 1.053876 1.770537
v -1.935555 -1.053876 1.588469
v -1.935555 1.053876 1.588469
v -2.081931 -1.053876 1.391102
v -2.081931 1.053876 1.391102
v -2.208258 -1.053876 1.180339
v -2.208258 1.053876 1.180339
v -2.313318 -1.053876 0.958208
v -2.313318 1.053876 0.958208
v -2.396100 -1.053876 0.726849
v -2.396100 1.053876 0.726849
v -2.455805 -1.053876 0.488490
v -2.455805 1.053876 0.488490
v -2.491860 -1.053876 0.245427
v -2.491860 1.053876 0.245427
v -2.503917 -1.053876 0.000000
v -2.503917 1.053876 0.000000
v -2.491860 -1.053876 -0.245427
v -2.491860 1.053876 -0.245427
v -2.455805 -1.053876 -0.488490
v -2.455805 1.053876 -0.488490
v -2.396100 -1.053876 -0.726849
v -2.396100 1.053876 -0.726849
v -2.313318 -1.053876 -0.958208
v -2.313318 1.053876 -0.958208
v -2.208258 -1.053876 -1.180339
v -2.208258 1.053876 -1.180339
v -2.081931 -1.053876 -1.391102
v -2.081931 1.053876 -1.391102
v -1.935555 -1.053876 -1.588469
v -1.935555 1.053876 -1.588469
v -1.770537 -1.053876 -1.770537
v -1.770537 1.053876 -1.770537
v -1.588469 -1.053876 -1.935555
v -1.588469 1.053876 -1.935555
v -1.391102 -1.053876 -2.081931
v -1.391102 1.053876 -2.081931
v -1.180339 -1.053876 -2.208258
v -1.180339 1.053876 -2.208258
v -0.958208 -1.053876 -2.313318
v -0.958208 1.053876 -2.313318
v -0.726849 -1.053876 -2.396100
v -0.726849 1.053876 -2.396100
v -0.488490 -1.053876 -2.455805
v -0.488490 1.053876 -2.455805
v -0.245427 -1.053876 -2.491860
v -0.245427 1.053876 -2.491860
vn 0.0491 -0.0000 -0.9988
vn 0.1467 -0.0000 -0.9892
vn 0.2430 -0.0000 -0.9700
vn 0.3369 -0.0000 -0.9415
vn 0.4276 -0.0000 -0.9040
vn 0.5141 -0.0000 -0.8577
vn 0.5957 -0.0000 -0.8032
vn 0.6716 -0.0000 -0.7410
vn 0.7410 -0.0000 -0.6716
vn 0.8032 -0.0000 -0.5957
vn 0.8577 -0.0000 -0.5141
vn 0.9040 -0.0000 -0.4276
vn 0.9415 -0.0000 -0.3369
vn 0.9700 -0.0000 -0.2430
vn 0.9892 -0.0000 -0.1467
vn 0.9988 -0.0000 -0.0491
vn 0.9988 -0.0000 0.0491
vn 0.9892 -0.0000 0.1467
vn 0.9700 -0.0000 0.2430
vn 0.9415 -0.0000 0.3369
vn 0.9040 -0.0000 0.4276
vn 0.8577 -0.0000 0.5141
vn 0.8032 -0.0000 0.5957
vn 0.7410 -0.0000 0.6716
vn 0.6716 -0.0000 0.7410
vn 0.5957 -0.0000 0.8032
vn 0.5141 -0.0000 0.8577
vn 0.4276 -0.0000 0.9040
vn 0.3369 -0.0000 0.9415
vn 0.2430 -0.0000 0.9700
vn 0.1467 -0.0000 0.9892
vn 0.0491 -0.0000 0.9988
vn -0.0491 -0.0000 0.9988
vn -0.1467 -0.0000 0.9892
vn -0.2430 -0.0000 0.9700
vn -0.3369 -0.0000 0.9415
vn -0.4276 -0.0000 0.9040
vn -0.5141 -0.0000 0.8577
vn -0.5957 -0.0000 0.8032
vn -0.6716 -0.0000 0.7410
vn -0.7410 -0.0000 0.6716
vn -0.8032 -0.0000 0.5957
vn -0.8577 -0.0000 0.5141
vn -0.9040 -0.0000 0.4276
vn -0.9415 -0.0000 0.3369
vn -0.9700 -0.0000 0.2430
vn -0.9892 -0.0000 0.1467
vn -0.9988 -0.0000 0.0491
vn -0.9988 -0.0000 -0.0491
vn -0.9892 -0.0000 -0.1467
vn -0.9700 -0.0000 -0.2430
vn -0.9415 -0.0000 -0.3369
vn -0.9040 -0.0000 -0.4276
vn -0.8577 -0.0000 -0.5141
vn -0.8032 -0.0000 -0.5957
vn -0.7410 -0.0000 -0.6716
vn -0.6716 -0.0000 -0.7410
vn -0.5957 -0.0000 -0.8032
vn -0.5141 -0.0000 -0.8577
vn -0.4276 -0.0000 -0.9040
vn -0.3369 -0.0000 -0.9415
vn -0.2430 -0.0000 -0.9700
vn -0.1467 -0.0000 -0.9892
vn -0.0491 -0.0000 -0.9988
vn -0.0000 -1.0000 -0.0000
vn -0.0000 1.0000 -0.0000
vt 1.000000 0.500000
vt 1.000000 1.000000
vt 0.984375 1.000000
vt 0.984375 0.500000
vt 0.968750 1.000000
vt 0.968750 0.500000
vt 0.953125 1.000000
vt 0.953125 0.500000
vt 0.937500 1.000000
vt 0.937500 0.500000
vt 0.921875 1.000000
vt 0.921875 0.500000
vt 0.906250 1.000000
vt 0.906250 0.500000
vt 0.890625 1.000000
vt 0.890625 0.500000
vt 0.875000 1.000000
vt 0.875000 0.500000
vt 0.859375 1.000000
vt 0.859375 0.500000
vt 0.843750 1.000000
vt 0.843750 0.500000
vt 0.828125 1.000000
vt 0.828125 0.500000
vt 0.812500 1.000000
vt 0.812500 0.500000
vt 0.796875 1.000000
vt 0.796875 0.500000
vt 0.781250 1.000000
vt 0.781250 0.500000
vt 0.765625 1.000000
vt 0.765625 0.500000
vt 0.750000 1.000000
vt 0.750000 0.500000
vt 0.734375 1.000000
vt 0.734375 0.500000
vt 0.718750 1.000000
vt 0.718750 0.500000
vt 0.703125 1.000000
vt 0.703125 0.500000
vt 0.687500 1.000000
vt 0.687500 0.500000
vt 0.671875 1.000000
vt 0.671875 0.500000
vt 0.656250 1.000000
vt 0.656250 0.500000
vt 0.640625 1.000000
vt 0.640625 0.500000
vt 0.625000 1.000000
vt 0.625000 0.500000
vt 0.609375 1.000000
vt 0.609375 0.500000
vt 0.593750 1.000000
vt 0.593750 0.500000
vt 0.578125 1.000000
vt 0.578125 0.500000
vt 0.562500 1.000000
vt 0.562500 0.500000
vt 0.546875 1.000000
vt 0.546875 0.500000
vt 0.531250 1.000000
vt 0.531250 0.500000
vt 0.515625 1.000000
vt 0.515625 0.500000
vt 0.500000 1.000000
vt 0.500000 0.500000
vt 0.484375 1.000000
vt 0.484375 0.500000
vt 0.468750 1.000000
vt 0.468750 0.500000
vt 0.453125 1.000000
vt 0.453125 0.500000
vt 0.437500 1.000000
vt 0.437500 0.500000
vt 0.421875 1.000000
vt 0.421875 0.500000
vt 0.406250 1.000000
vt 0.406250 0.500000
vt 0.390625 1.000000
vt 0.390625 0.500000
vt 0.375000 1.000000
vt 0.375000 0.500000
vt 0.359375 1.000000
vt 0.359375 0.500000
vt 0.343750 1.000000
vt 0.343750 0.500000
vt 0.328125 1.000000
vt 0.328125 0.500000
vt 0.312500 1.000000
vt 0.312500 0.500000
vt 0.296875 1.000000
vt 0.296875 0.500000
vt 0.281250 1.000000
vt 0.281250 0.500000
vt 0.265625 1.000000
vt 0.265625 0.500000
vt 0.250000 1.000000
vt 0.250000 0.500000
vt 0.234375 1.000000
vt 0.234375 0.500000
vt 0.218750 1.000000
vt 0.218750 0.500000
vt 0.203125 1.000000
vt 0.203125 0.500000
vt 0.187500 1.000000
vt 0.187500 0.500000
vt 0.171875 1.000000
vt 0.171875 0.500000
vt 0.156250 1.000000
vt 0.156250 0.500000
vt 0.140625 1.000000
vt 0.140625 0.500000
vt 0.125000 1.000000
vt 0.125000 0.500000
vt 0.109375 1.000000
vt 0.109375 0.500000
vt 0.093750 1.000000
vt 0.093750 0.500000
vt 0.078125 1.000000
vt 0.078125 0.500000
vt 0.062500 1.000000
vt 0.062500 0.500000
vt 0.046875 1.000000
vt 0.046875 0.500000
vt 0.031250 1.000000
vt 0.031250 0.500000
vt 0.015625 1.000000
vt 0.015625 0.500000
vt 0.000000 1.000000
vt 0.000000 0.500000
s 0
f 1/1/1 2/2/1 4/3/1 3/4/1
f 3/4/2 4/3/2 6/5/2 5/6/2
f 5/6/3 6/5/3 8/7/3 7/8/3
f 7/8/4 8/7/4 10/9/4 9/10/4
f 9/10/5 10/9/5 12/11/5 11/12/5
f 11/12/6 12/11/6 14/13/6 13/14/6
f 13/14/7 14/13/7 16/15/7 15/16/7
f 15/16/8 16/15/8 18/17/8 17/18/8
f 17/18/9 18/17/9 20/19/9 19/20/9
f 19/20/10 20/19/10 22/21/10 21/22/10
f 21/22/11 22/21/11 24/23/11 23/24/11
f 23/24/12 24/23/12 26/25/12 25/26/12
f 25/26/13 26/25/13 28/27/13 27/28/13
f 27/28/14 28/27/14 30/29/14 29/30/14
f 29/30/15 30/29/15 32/31/15 31/32/15
f 31/32/16 32/31/16 34/33/16 33/34/16
f 33/34/17 34/33/17 36/35/17 35/36/17
f 35/36/18 36/35/18 38/37/18 37/38/18
f 37/38/19 38/37/19 40/39/19 39/40/19
f 39/40/20 40/39/20 42/41/20 41/42/20
f 41/42/21 42/41/21 44/43/21 43/44/21
f 43/44/22 44/43/22 46/45/22 45/46/22
f 45/46/23 46/45/23 48/47/23 47/48/23
f 47/48/24 48/47/24 50/49/24 49/50/24
f 49/50/25 50/49/25 52/51/25 51/52/25
f 51/52/26 52/51/26 54/53/26 53/54/26
f 53/54/27 54/53/27 56/55/27 55/56/27
f 55/56/28 56/55/28 58/57/28 57/58/28
f 57/58/29 58/57/29 60/59/29 59/60/29
f 59/60/30 60/59/30 62/61/30 61/62/30
f 61/62/31 62/61/31 64/63/31 63/64/31
f 63/64/32 64/63/32 66/65/32 65/66/32
f 65/66/33 66/65/33 68/67/33 67/68/33
f 67/68/34 68/67/34 70/69/34 69/70/34
f 69/70/35 70/69/35 72/71/35 71/72/35
f 71/72/36 72/71/36 74/73/36 73/74/36
f 73/74/37 74/73/37 76/75/37 75/76/37
f 75/76/38 76/75/38 78/77/38 77/78/38
f 77/78/39 78/77/39 80/79/39 79/80/39
f 79/80/40 80/79/40 82/81/40 81/82/40
f 81/82/41 82/81/41 84/83/41 83/84/41
f 83/84/42 84/83/42 86/85/42 85/86/42
f 85/86/43 86/85/43 88/87/43 87/88/43
f 87/88/44 88/87/44 90/89/44 89/90/44
f 89/90/45 90/89/45 92/91/45 91/92/45
f 91/92/46 92/91/46 94/93/46 93/94/46
f 93/94/47 94/93/47 96/95/47 95/96/47
f 95/96/48 96/95/48 98/97/48 97/98/48
f 97/98/49 98/97/49 100/99/49 99/100/49
f 99/100/50 100/99/50 102/101/50 101/102/50
f 101/102/51 102/101/51 104/103/51 103/104/51
f 103/104/52 104/103/52 106/105/52 105/106/52
f 105/106/53 106/105/53 108/107/53 107/108/53
f 107/108/54 108/107/54 110/109/54 109/110/54
f 109/110/55 110/109/55 112/111/55 111/112/55
f 111/112/56 112/111/56 114/113/56 113/114/56
f 113/114/57 114/113/57 116/115/57 115/116/57
f 115/116/58 116/115/58 118/117/58 117/118/58
f 117/118/59 118/117/59 120/119/59 119/120/59
f 119/120/60 120/119/60 122/121/60 121/122/60
f 121/122/61 122/121/61 124/123/61 123/124/61
f 123/124/62 124/123/62 126/125/62 125/126/62
f 125/126/63 126/125/63 128/127/63 127/128/63
f 127/128/64 128/127/64 2/129/64 1/130/64
f 129/1/33 131/4/33 132/3/33 130/2/33
f 131/4/34 133/6/34 134/5/34 132/3/34
f 133/6/35 135/8/35 136/7/35 134/5/35
f 135/8/36 137/10/36 138/9/36 136/7/36
f 137/10/37 139/12/37 140/11/37 138/9/37
f 139/12/38 141/14/38 142/13/38 140/11/38
f 141/14/39 143/16/39 144/15/39 142/13/39
f 143/16/40 145/18/40 146/17/40 144/15/40
f 145/18/41 147/20/41 148/19/41 146/17/41
f 147/20/42 149/22/42 150/21/42 148/19/42
f 149/22/43 151/24/43 152/23/43 150/21/43
f 151/24/44 153/26/44 154/25/44 152/23/44
f 153/26/45 155/28/45 156/27/45 154/25/45
f 155/28/46 157/30/46 158/29/46 156/27/46
f 157/30/47 159/32/47 160/31/47 158/29/47
f 159/32/48 161/34/48 162/33/48 160/31/48
f 161/34/49 163/36/49 164/35/49 162/33/49
f 163/36/50 165/38/50 166/37/50 164/35/50
f 165/38/51 167/40/51 168/39/51 166/37/51
f 167/40/52 169/42/52 170/41/52 168/39/52
f 169/42/53 171/44/53 172/43/53 170/41/53
f 171/44/54 173/46/54 174/45/54 172/43/54
f 173/46/55 175/48/55 176/47/55 174/45/55
f 175/48/56 177/50/56 178/49/56 176/47/56
f 177/50/57 179/52/57 180/51/57 178/49/57
f 179/52/58 181/54/58 182/53/58 180/51/58
f 181/54/59 183/56/59 184/55/59 182/53/59
f 183/56/60 185/58/60 186/57/60 184/55/60
f 185/58/61 187/60/61 188/59/61 186/57/61
f 187/60/62 189/62/62 190/61/62 188/59/62
f 189/62/63 191/64/63 192/63/63 190/61/63
f 191/64/64 193/66/64 194/65/64 192/63/64
f 193/66/1 195/68/1 196/67/1 194/65/1
f 195/68/2 197/70/2 198/69/2 196/67/2
f 197/70/3 199/72/3 200/71/3 198/69/3
f 199/72/4 201/74/4 202/73/4 200/71/4
f 201/74/5 203/76/5 204/75/5 202/73/5
f 203/76/6 205/78/6 206/77/6 204/75/6
f 205/78/7 207/80/7 208/79/7 206/77/7
f 207/80/8 209/82/8 210/81/8 208/79/8
f 209/82/9 211/84/9 212/83/9 210/81/9
f 211/84/10 213/86/10 214/85/10 212/83/10
f 213/86/11 215/88/11 216/87/11 214/85/11
f 215/88/12 217/90/12 218/89/12 216/87/12
f 217/90/13 219/92/13 220/91/13 218/89/13
f 219/92/14 221/94/14 222/93/14 220/91/14
f 221/94/15 223/96/15 224/95/15 222/93/15
f 223/96/16 225/98/16 226/97/16 224/95/16
f 225/98/17 227/100/17 228/99/17 226/97/17
f 227/100/18 229/102/18 230/101/18 228/99/18
f 229/102/19 231/104/19 232/103/19 230/101/19
f 231/104/20 233/106/20 234/105/20 232/103/20
f 233/106/21 235/108/21 236/107/21 234/105/21
f 235/108/22 237/110/22 238/109/22 236/107/22
f 237/110/23 239/112/23 240/111/23 238/109/23
f 239/112/24 241/114/24 242/113/24 240/111/24
f 241/114/25 243/116/25 244/115/25 242/113/25
f 243/116/26 245/118/26 246/117/26 244/115/26
f 245/118/27 247/120/27 248/119/27 246/117/27
f 247/120/28 249/122/28 250/121/28 248/119/28
f 249/122/29 251/124/29 252/123/29 250/121/29
f 251/124/30 253/126/30 254/125/30 252/123/30
f 253/126/31 255/128/31 256/127/31 254/125/31
f 255/128/32 129/130/32 130/129/32 256/127/32
f 1/1/65 3/4/65 131/4/65 129/1/65
f 4/3/66 2/2/66 130/2/66 132/3/66
f 3/4/65 5/6/65 133/6/65 131/4/65
f 6/5/66 4/3/66 132/3/66 134/5/66
f 5/6/65 7/8/65 135/8/65 133/6/65
f 8/7/66 6/5/66 134/5/66 136/7/66
f 7/8/65 9/10/65 137/10/65 135/8/65
f 10/9/66 8/7/66 136/7/66 138/9/66
f 9/10/65 11/12/65 139/12/65 137/10/65
f 12/11/66 10/9/66 138/9/66 140/11/66
f 11/12/65 13/14/65 141/14/65 139/12/65
f 14/13/66 12/11/66 140/11/66 142/13/66
f 13/14/65 15/16/65 143/16/65 141/14/65
f 16/15/66 14/13/66 142/13/66 144/15/66
f 15/16/65 17/18/65 145/18/65 143/16/65
f 18/17/66 16/15/66 144/15/66 146/17/66
f 17/18/65 19/20/65 147/20/65 145/18/65
f 20/19/66 18/17/66 146/17/66 148/19/66
f 19/20/65 21/22/65 149/22/65 147/20/65
f 22/21/66 20/19/66 148/19/66 150/21/66
f 21/22/65 23/24/65 151/24/65 149/22/65
f 24/23/66 22/21/66 150/21/66 152/23/66
f 23/24/65 25/26/65 153/26/65 151/24/65
f 26/25/66 24/23/66 152/23/66 154/25/66
f 25/26/65 27/28/65 155/28/65 153/26/65
f 28/27/66 26/25/66 154/25/66 156/27/66
f 27/28/65 29/30/65 157/30/65 155/28/65
f 30/29/66 28/27/66 156/27/66 158/29/66
f 29/30/65 31/32/65 159/32/65 157/30/65
f 32/31/66 30/29/66 158/29/66 160/31/66
f 31/32/65 33/34/65 161/34/65 159/32/65
f 34/33/66 32/31/66 160/31/66 162/33/66
f 33/34/65 35/36/65 163/36/65 161/34/65
f 36/35/66 34/33/66 162/33/66 164/35/66
f 35/36/65 37/38/65 165/38/65 163/36/65
f 38/37/66 36/35/66 164/35/66 166/37/66
f 37/38/65 39/40/65 167/40/65 165/38/65
f 40/39/66 38/37/66 166/37/66 168/39/66
f 39/40/65 41/42/65 169/42/65 167/40/65
f 42/41/66 40/39/66 168/39/66 170/41/66
f 41/42/65 43/44/65 171/44/65 169/42/65
f 44/43/66 42/41/66 170/41/66 172/43/66
f 43/44/65 45/46/65 173/46/65 171/44/65
f 46/45/66 44/43/66 172/43/66 174/45/66
f 45/46/65 47/48/65 175/48/65 173/46/65
f 48/47/66 46/45/66 174/45/66 176/47/66
f 47/48/65 49/50/65 177/50/65 175/48/65
f 50/49/66 48/47/66 176/47/66 178/49/66
f 49/50/65 51/52/65 179/52/65 177/50/65
f 52/51/66 50/49/66 178/49/66 180/51/66
f 51/52/65 53/54/65 181/54/65 179/52/65
f 54/53/66 52/51/66 180/51/66 182/53/66
f 53/54/65 55/56/65 183/56/65 181/54/65
f 56/55/66 54/53/66 182/53/66 184/55/66
f 55/56/65 57/58/65 185/58/65 183/56/65
f 58/57/66 56/55/66 184/55/66 186/57/66
f 57/58/65 59/60/65 187/60/65 185/58/65
f 60/59/66 58/57/66 186/57/66 188/59/66
f 59/60/65 61/62/65 189/62/65 187/60/65
f 62/61/66 60/59/66 188/59/66 190/61/66
f 61/62/65 63/64/65 191/64/65 189/62/65
f 64/63/66 62/61/66 190/61/66 192/63/66
f 63/64/65 65/66/65 193/66/65 191/64/65
f 66/65/66 64/63/66 192/63/66 194/65/66
f 65/66/65 67/68/65 195/68/65 193/66/65
f 68/67/66 66/65/66 194/65/66 196/67/66
f 67/68/65 69/70/65 197/70/65 195/68/65
f 70/69/66 68/67/66 196/67/66 198/69/66
f 69/70/65 71/72/65 199/72/65 197/70/65
f 72/71/66 70/69/66 198/69/66 200/71/66
f 71/72/65 73/74/65 201/74/65 199/72/65
f 74/73/66 72/71/66 200/71/66 202/73/66
f 73/74/65 75/76/65 203/76/65 201/74/65
f 76/75/66 74/73/66 202/73/66 204/75/66
f 75/76/65 77/78/65 205/78/65 203/76/65
f 78/77/66 76/75/66 204/75/66 206/77/66
f 77/78/65 79/80/65 207/80/65 205/78/65
f 80/79/66 78/77/66 206/77/66 208/79/66
f 79/80/65 81/82/65 209/82/65 207/80/65
f 82/81/66 80/79/66 208/79/66 210/81/66
f 81/82/65 83/84/65 211/84/65 209/82/65
f 84/83/66 82/81/66 210/81/66 212/83/66
f 83/84/65 85/86/65 213/86/65 211/84/65
f 86/85/66 84/83/66 212/83/66 214/85/66
f 85/86/65 87/88/65 215/88/65 213/86/65
f 88/87/66 86/85/66 214/85/66 216/87/66
f 87/88/65 89/90/65 217/90/65 215/88/65
f 90/89/66 88/87/66 216/87/66 218/89/66
f 89/90/65 91/92/65 219/92/65 217/90/65
f 92/91/66 90/89/66 218/89/66 220/91/66
f 91/92/65 93/94/65 221/94/65 219/92/65
f 94/93/66 92/91/66 220/91/66 222/93/66
f 93/94/65 95/96/65 223/96/65 221/94/65
f 96/95/66 94/93/66 222/93/66 224/95/66
f 95/96/65 97/98/65 225/98/65 223/96/65
f 98/97/66 96/95/66 224/95/66 226/97/66
f 97/98/65 99/100/65 227/100/65 225/98/65
f 100/99/66 98/97/66 226/97/66 228/99/66
f 99/100/65 101/102/65 229/102/65 227/100/65
f 102/101/66 100/99/66 228/99/66 230/101/66
f 101/102/65 103/104/65 231/104/65 229/102/65
f 104/103/66 102/101/66 230/101/66 232/103/66
f 103/104/65 105/106/65 233/106/65 231/104/65
f 106/105/66 104/103/66 232/103/66 234/105/66
f 105/106/65 107/108/65 235/108/65 233/106/65
f 108/107/66 106/105/66 234/105/66 236/107/66
f 107/108/65 109/110/65 237/110/65 235/108/65
f 110/109/66 108/107/66 236/107/66 238/109/66
f 109/110/65 111/112/65 239/112/65 237/110/65
f 112/111/66 110/109/66 238/109/66 240/111/66
f 111/112/65 113/114/65 241/114/65 239/112/65
f 114/113/66 112/111/66 240/111/66 242/113/66
f 113/114/65 115/116/65 243/116/65 241/114/65
f 116/115/66 114/113/66 242/113/66 244/115/66
f 115/116/65 117/118/65 245/118/65 243/116/65
f 118/117/66 116/115/66 244/115/66 246/117/66
f 117/118/65 119/120/65 247/120/65 245/118/65
f 120/119/66 118/117/66 246/117/66 248/119/66
f 119/120/65 121/122/65 249/122/65 247/120/65
f 122/121/66 120/119/66 248/119/66 250/121/66
f 121/122/65 123/124/65 251/124/65 249/122/65
f 124/123/66 122/121/66 250/121/66 252/123/66
f 123/124/65 125/126/65 253/126/65 251/124/65
f 126/125/66 124/123/66 252/123/66 254/125/66
f 125/126/65 127/128/65 255/128/65 253/126/65
f 128/127/66 126/125/66 254/125/66 256/127/66
f 127/128/65 1/130/65 129/130/65 255/128/65
f 2/129/66 128/127/66 256/127/66 130/129/66
