# Blender 4.1.1
# www.blender.org
mtllib Missile.mtl
o BlackBomb.Body.BlueMoon
v 33.067982 2.344119 -3.319044
v 33.164120 2.247980 -3.319044
v 33.164120 2.112020 -3.319044
v 33.067982 2.015881 -3.319044
v 32.932018 2.015881 -3.319044
v 32.835880 2.112020 -3.319044
v 32.835880 2.247980 -3.319044
v 32.932018 2.344119 -3.319044
v 33.063839 2.334119 -1.580956
v 33.130112 2.494119 -1.740956
v 33.110703 2.447256 -1.627819
v 33.154118 2.243838 -1.580956
v 33.314117 2.310112 -1.740956
v 33.267258 2.290701 -1.627819
v 33.154118 2.116162 -1.580956
v 33.314117 2.049888 -1.740956
v 33.267258 2.069299 -1.627819
v 33.063839 2.025881 -1.580956
v 33.130112 1.865881 -1.740956
v 33.110703 1.912744 -1.627819
v 32.936161 2.025881 -1.580956
v 32.869888 1.865881 -1.740956
v 32.889297 1.912744 -1.627819
v 32.845882 2.116162 -1.580956
v 32.685883 2.049888 -1.740956
v 32.732742 2.069299 -1.627819
v 32.845882 2.243838 -1.580956
v 32.685883 2.310112 -1.740956
v 32.732742 2.290701 -1.627819
v 32.936161 2.334119 -1.580956
v 32.869888 2.494119 -1.740956
v 32.889297 2.447256 -1.627819
v 33.130112 2.494119 -3.319044
v 33.314117 2.310112 -3.319044
v 33.314117 2.049888 -3.319044
v 33.130112 1.865881 -3.319044
v 32.869888 1.865881 -3.319044
v 32.685883 2.049888 -3.319044
v 32.685883 2.310112 -3.319044
v 32.869888 2.494119 -3.319044
v 33.047268 2.294119 -3.469044
v 33.114120 2.227270 -3.469044
v 33.114120 2.132730 -3.469044
v 33.047268 2.065881 -3.469044
v 32.952732 2.065881 -3.469044
v 32.885880 2.132730 -3.469044
v 32.885880 2.227270 -3.469044
v 32.952732 2.294119 -3.469044
v 33.000000 2.180000 -1.580956
v 33.130112 2.494119 -2.372191
v 33.130112 2.494119 -1.898765
v 33.314117 2.310112 -1.898765
v 33.314117 2.310112 -2.372191
v 32.869888 2.494119 -2.372191
v 32.869888 2.494119 -1.898765
v 33.314117 2.049888 -1.898765
v 33.314117 2.049888 -2.372191
v 33.130112 1.865881 -1.898765
v 33.130112 1.865881 -2.372191
v 32.869888 1.865881 -1.898765
v 32.869888 1.865881 -2.372191
v 32.685883 2.049888 -1.898765
v 32.685883 2.049888 -2.372191
v 32.685883 2.310112 -1.898765
v 32.685883 2.310112 -2.372191
v 33.130112 2.494119 -2.214382
v 33.130112 2.494119 -2.056573
v 33.314117 2.310112 -2.056573
v 33.314117 2.310112 -2.214382
v 32.869888 2.494119 -2.214382
v 32.869888 2.494119 -2.056573
v 33.314117 2.049888 -2.056573
v 33.314117 2.049888 -2.214382
v 33.130112 1.865881 -2.056573
v 33.130112 1.865881 -2.214382
v 32.869888 1.865881 -2.056573
v 32.869888 1.865881 -2.214382
v 32.685883 2.049888 -2.056573
v 32.685883 2.049888 -2.214382
v 32.685883 2.310112 -2.056573
v 32.685883 2.310112 -2.214382
v 33.067982 2.344119 -3.469044
v 33.164120 2.247980 -3.469044
v 33.164120 2.112020 -3.469044
v 33.067982 2.015881 -3.469044
v 32.932018 2.015881 -3.469044
v 32.835880 2.112020 -3.469044
v 32.835880 2.247980 -3.469044
v 32.932018 2.344119 -3.469044
v 33.000000 2.180000 -3.319044
v 33.047268 2.294119 -3.319044
v 33.047268 2.065881 -3.319044
v 32.952732 2.065881 -3.319044
v 33.114120 2.227270 -3.319044
v 33.114120 2.132730 -3.319044
v 32.885880 2.227270 -3.319044
v 32.952732 2.294119 -3.319044
v 32.885880 2.132730 -3.319044
v 33.314117 2.310112 -2.800000
v 33.314117 2.049888 -2.800000
v 33.130112 1.865881 -2.800000
v 32.869888 1.865881 -2.800000
v 32.685883 2.049888 -2.800000
v 32.685883 2.310112 -2.800000
v 33.130112 2.494119 -2.800000
v 32.869888 2.494119 -2.800000
v 32.930965 2.494119 -2.800000
v 32.965485 2.841202 -3.100000
v 32.930965 2.494119 -3.319044
v 32.965485 2.841202 -3.319044
v 33.069035 2.494119 -2.800000
v 33.034515 2.841202 -3.100000
v 33.069035 2.494119 -3.319044
v 33.034515 2.841202 -3.319044
v 32.685883 2.110967 -2.800000
v 32.338799 2.145483 -3.100000
v 32.685883 2.110967 -3.319044
v 32.338799 2.145483 -3.319044
v 32.685883 2.249033 -2.800000
v 32.338799 2.214517 -3.100000
v 32.685883 2.249033 -3.319044
v 32.338799 2.214517 -3.319044
v 33.069035 1.865881 -2.800000
v 33.034515 1.518799 -3.100000
v 33.069035 1.865881 -3.319044
v 33.034515 1.518799 -3.319044
v 32.930965 1.865881 -2.800000
v 32.965485 1.518799 -3.100000
v 32.930965 1.865881 -3.319044
v 32.965485 1.518799 -3.319044
v 33.314117 2.249033 -2.800000
v 33.661201 2.214517 -3.100000
v 33.314117 2.249033 -3.319044
v 33.661201 2.214517 -3.319044
v 33.314117 2.110967 -2.800000
v 33.661201 2.145484 -3.100000
v 33.314117 2.110967 -3.319044
v 33.661201 2.145484 -3.319044
vn -0.3827 0.9239 -0.0000
vn -0.3750 0.9053 0.1994
vn 0.3750 0.9053 0.1994
vn 0.3827 0.9239 -0.0000
vn 0.9239 -0.3827 -0.0000
vn 0.9053 -0.3750 0.1994
vn 0.3750 -0.9053 0.1994
vn 0.3827 -0.9239 -0.0000
vn -0.3750 -0.9053 0.1994
vn -0.3827 -0.9239 -0.0000
vn -0.9053 -0.3750 0.1994
vn -0.9239 -0.3827 -0.0000
vn -0.9053 0.3750 0.1994
vn -0.9239 0.3827 -0.0000
vn 0.9053 0.3750 0.1994
vn 0.9239 0.3827 -0.0000
vn 0.2797 0.6753 0.6824
vn 0.6753 0.2797 0.6824
vn 0.0860 0.2077 0.9744
vn 0.2077 0.0860 0.9744
vn 0.6753 -0.2797 0.6824
vn 0.2077 -0.0860 0.9744
vn 0.2797 -0.6753 0.6824
vn 0.0860 -0.2077 0.9744
vn -0.2797 -0.6753 0.6824
vn -0.0860 -0.2077 0.9744
vn -0.6753 -0.2797 0.6824
vn -0.2077 -0.0860 0.9744
vn -0.6753 0.2797 0.6824
vn -0.2077 0.0860 0.9744
vn -0.2797 0.6753 0.6824
vn -0.0860 0.2077 0.9744
vn -0.0000 -0.0000 1.0000
vn -0.0000 -0.0000 -1.0000
vn -0.9951 0.0990 -0.0000
vn 0.9951 0.0990 -0.0000
vn -0.0000 0.6539 0.7566
vn -0.0000 0.9049 0.4257
vn -0.0000 1.0000 -0.0000
vn -0.0990 -0.9951 -0.0000
vn -0.0990 0.9951 -0.0000
vn -0.6539 -0.0000 0.7566
vn -0.9049 -0.0000 0.4257
vn -1.0000 -0.0000 -0.0000
vn 0.9951 -0.0990 -0.0000
vn -0.9951 -0.0990 -0.0000
vn -0.0000 -0.6539 0.7566
vn -0.0000 -0.9049 0.4257
vn -0.0000 -1.0000 -0.0000
vn 0.0990 0.9951 -0.0000
vn 0.0990 -0.9951 -0.0000
vn 0.6539 -0.0000 0.7566
vn 0.9049 -0.0000 0.4257
vn 1.0000 -0.0000 -0.0000
vt 0.001382 0.979702
vt 0.001375 0.979784
vt 0.001247 0.979790
vt 0.001238 0.979706
vt 0.002157 0.966764
vt 0.002143 0.966859
vt 0.002001 0.966828
vt 0.002008 0.966747
vt 0.001873 0.966833
vt 0.001865 0.966749
vt 0.001731 0.966873
vt 0.001710 0.966772
vt 0.002476 0.971689
vt 0.002476 0.971785
vt 0.002318 0.971785
vt 0.002318 0.971689
vt 0.001532 0.975621
vt 0.001518 0.975717
vt 0.001375 0.975687
vt 0.001382 0.975605
vt 0.001238 0.975608
vt 0.001247 0.975693
vt 0.001104 0.975733
vt 0.001083 0.975632
vt 0.002773 0.971689
vt 0.002773 0.971785
vt 0.002615 0.971785
vt 0.002615 0.971689
vt 0.006213 0.985345
vt 0.006248 0.985386
vt 0.006207 0.985492
vt 0.006110 0.985392
vt 0.001261 0.975755
vt 0.001140 0.975806
vt 0.001279 0.975828
vt 0.001205 0.975869
vt 0.002761 0.971859
vt 0.002627 0.971859
vt 0.002733 0.971933
vt 0.002655 0.971933
vt 0.002110 0.966930
vt 0.001996 0.966891
vt 0.002056 0.966989
vt 0.001983 0.966960
vt 0.001887 0.966895
vt 0.001904 0.966968
vt 0.001766 0.966945
vt 0.001830 0.967008
vt 0.002464 0.971859
vt 0.002329 0.971859
vt 0.002435 0.971933
vt 0.002358 0.971933
vt 0.001486 0.975788
vt 0.001371 0.975750
vt 0.001432 0.975848
vt 0.001358 0.975820
vt 0.001371 0.979847
vt 0.001261 0.979852
vt 0.001358 0.979917
vt 0.001279 0.979926
vt 0.002967 0.974785
vt 0.003045 0.974785
vt 0.003006 0.974879
vt 0.002467 0.980832
vt 0.002409 0.980890
vt 0.002318 0.980853
vt 0.002429 0.980741
vt 0.002550 0.980832
vt 0.002587 0.980741
vt 0.002608 0.980890
vt 0.002699 0.980853
vt 0.002608 0.980973
vt 0.002699 0.981011
vt 0.002550 0.981031
vt 0.002587 0.981122
vt 0.002467 0.981031
vt 0.002429 0.981122
vt 0.002409 0.980973
vt 0.002318 0.981011
vt 0.006041 0.984151
vt 0.006082 0.984192
vt 0.006256 0.989803
vt 0.006216 0.989838
vt 0.006110 0.989801
vt 0.006208 0.989702
vt 0.006338 0.993789
vt 0.006307 0.993746
vt 0.006347 0.993641
vt 0.006442 0.993742
vt 0.006299 0.989940
vt 0.006336 0.989905
vt 0.006442 0.989942
vt 0.006346 0.990041
vt 0.006216 0.985291
vt 0.006110 0.985253
vt 0.006256 0.993741
vt 0.006208 0.993639
vt 0.006336 0.993843
vt 0.006442 0.993879
vt 0.006299 0.985392
vt 0.006346 0.985494
vt 0.006082 0.984249
vt 0.006041 0.984290
vt 0.005984 0.984290
vt 0.005943 0.984249
vt 0.005943 0.984192
vt 0.005984 0.984151
vt 0.003045 0.974973
vt 0.002967 0.974973
vt 0.003100 0.974918
vt 0.002913 0.974840
vt 0.003100 0.974840
vt 0.002913 0.974918
vt 0.002773 0.971142
vt 0.002773 0.971401
vt 0.002615 0.971401
vt 0.002615 0.971142
vt 0.006486 0.984814
vt 0.006486 0.984910
vt 0.006328 0.984910
vt 0.006328 0.984814
vt 0.001225 0.975060
vt 0.001226 0.975326
vt 0.001062 0.975331
vt 0.001062 0.975062
vt 0.010322 0.988995
vt 0.010329 0.989085
vt 0.010173 0.989109
vt 0.010162 0.989009
vt 0.001548 0.975062
vt 0.001547 0.975329
vt 0.001386 0.975326
vt 0.001387 0.975060
vt 0.010630 0.989001
vt 0.010622 0.989098
vt 0.010472 0.989082
vt 0.010475 0.988993
vt 0.002476 0.971142
vt 0.002476 0.971401
vt 0.002318 0.971401
vt 0.002318 0.971142
vt 0.006189 0.984814
vt 0.006189 0.984910
vt 0.006031 0.984910
vt 0.006031 0.984814
vt 0.001853 0.966201
vt 0.001853 0.966468
vt 0.001690 0.966472
vt 0.001690 0.966203
vt 0.006724 0.989610
vt 0.006730 0.989700
vt 0.006575 0.989723
vt 0.006564 0.989623
vt 0.002015 0.966201
vt 0.002014 0.966467
vt 0.006876 0.989609
vt 0.006873 0.989698
vt 0.002177 0.966203
vt 0.002176 0.966471
vt 0.007032 0.989619
vt 0.007022 0.989716
vt 0.001387 0.979157
vt 0.001386 0.979423
vt 0.001226 0.979424
vt 0.001225 0.979157
vt 0.010475 0.988480
vt 0.010472 0.988570
vt 0.010329 0.988573
vt 0.010322 0.988483
vt 0.010477 0.988291
vt 0.010476 0.988387
vt 0.010318 0.988388
vt 0.010316 0.988291
vt 0.001386 0.979519
vt 0.001384 0.979613
vt 0.001232 0.979615
vt 0.001228 0.979520
vt 0.007041 0.989422
vt 0.007037 0.989521
vt 0.006878 0.989515
vt 0.006879 0.989419
vt 0.002172 0.966570
vt 0.002167 0.966667
vt 0.002011 0.966658
vt 0.002013 0.966564
vt 0.006721 0.989516
vt 0.006719 0.989419
vt 0.001859 0.966659
vt 0.001855 0.966564
vt 0.006558 0.989523
vt 0.006555 0.989423
vt 0.001699 0.966672
vt 0.001693 0.966572
vt 0.006189 0.984622
vt 0.006189 0.984718
vt 0.006031 0.984718
vt 0.006031 0.984622
vt 0.002476 0.971497
vt 0.002476 0.971593
vt 0.002318 0.971593
vt 0.002318 0.971497
vt 0.010637 0.988806
vt 0.010634 0.988904
vt 0.010476 0.988899
vt 0.010477 0.988803
vt 0.001544 0.975427
vt 0.001539 0.975524
vt 0.001384 0.975516
vt 0.001386 0.975422
vt 0.010316 0.988803
vt 0.010318 0.988900
vt 0.010156 0.988908
vt 0.010152 0.988808
vt 0.001228 0.975423
vt 0.001232 0.975518
vt 0.001071 0.975532
vt 0.001065 0.975431
vt 0.006486 0.984622
vt 0.006486 0.984718
vt 0.006328 0.984718
vt 0.006328 0.984622
vt 0.002773 0.971497
vt 0.002773 0.971593
vt 0.002615 0.971593
vt 0.002615 0.971497
vt 0.006082 0.984998
vt 0.006041 0.984958
vt 0.006054 0.984927
vt 0.006112 0.984986
vt 0.006082 0.985056
vt 0.006112 0.985068
vt 0.006041 0.985096
vt 0.006054 0.985127
vt 0.005984 0.985096
vt 0.005971 0.985127
vt 0.005943 0.985056
vt 0.005913 0.985068
vt 0.005943 0.984998
vt 0.005913 0.984986
vt 0.005984 0.984958
vt 0.005971 0.984927
vt 0.002179 0.967727
vt 0.002122 0.967727
vt 0.002151 0.967658
vt 0.002220 0.967629
vt 0.002220 0.967687
vt 0.002081 0.967629
vt 0.002122 0.967589
vt 0.002081 0.967687
vt 0.002179 0.967589
vt 0.001387 0.978834
vt 0.001224 0.978834
vt 0.002178 0.965878
vt 0.002015 0.965878
vt 0.001852 0.965877
vt 0.001689 0.965877
vt 0.002476 0.970826
vt 0.002318 0.970826
vt 0.001550 0.974738
vt 0.001387 0.974737
vt 0.001224 0.974737
vt 0.001061 0.974737
vt 0.002773 0.970826
vt 0.002615 0.970826
vt 0.001061 0.976396
vt 0.001275 0.976580
vt 0.001275 0.976714
vt 0.001061 0.976714
vt 0.003276 0.981513
vt 0.003255 0.981726
vt 0.003213 0.981726
vt 0.003192 0.981513
vt 0.003052 0.976232
vt 0.002839 0.976232
vt 0.002839 0.976098
vt 0.003052 0.975914
vt 0.001414 0.979548
vt 0.001435 0.979267
vt 0.001478 0.979267
vt 0.001499 0.979548
vt 0.003239 0.979749
vt 0.003281 0.979749
vt 0.003281 0.979883
vt 0.003239 0.979883
vt 0.002913 0.966335
vt 0.003126 0.966518
vt 0.003126 0.966653
vt 0.002913 0.966653
vt 0.003350 0.979846
vt 0.003329 0.980059
vt 0.003287 0.980059
vt 0.003266 0.979846
vt 0.003126 0.979152
vt 0.002913 0.979152
vt 0.002913 0.979018
vt 0.003126 0.978834
vt 0.001414 0.976640
vt 0.001435 0.976359
vt 0.001478 0.976359
vt 0.001499 0.976640
vt 0.001414 0.976780
vt 0.001456 0.976780
vt 0.001456 0.976914
vt 0.001414 0.976914
vt 0.001689 0.971590
vt 0.001903 0.971773
vt 0.001903 0.971907
vt 0.001689 0.971907
vt 0.003350 0.979494
vt 0.003329 0.979707
vt 0.003287 0.979707
vt 0.003266 0.979494
vt 0.003052 0.971862
vt 0.002839 0.971862
vt 0.002839 0.971728
vt 0.003052 0.971544
vt 0.002042 0.967780
vt 0.002063 0.967499
vt 0.002106 0.967499
vt 0.002127 0.967780
vt 0.002042 0.968047
vt 0.002084 0.968047
vt 0.002084 0.968181
vt 0.002042 0.968181
vt 0.002318 0.980601
vt 0.002531 0.980785
vt 0.002531 0.980919
vt 0.002318 0.980919
vt 0.003276 0.981161
vt 0.003255 0.981374
vt 0.003213 0.981374
vt 0.003192 0.981161
vt 0.001275 0.967467
vt 0.001061 0.967467
vt 0.001061 0.967332
vt 0.001275 0.967149
vt 0.003192 0.976195
vt 0.003213 0.975914
vt 0.003255 0.975914
vt 0.003276 0.976195
vt 0.001061 0.976854
vt 0.001103 0.976854
vt 0.001103 0.976988
vt 0.001061 0.976988
s 1
usemtl MasterMat
f 55/1/1 31/2/2 10/3/3 51/4/4
f 56/5/5 16/6/6 19/7/7 58/8/8
f 58/8/8 19/7/7 22/9/9 60/10/10
f 60/10/10 22/9/9 25/11/11 62/12/12
f 62/13/12 25/14/11 28/15/13 64/16/14
f 64/17/14 28/18/13 31/19/2 55/20/1
f 51/21/4 10/22/3 13/23/15 52/24/16
f 52/25/16 13/26/15 16/27/6 56/28/5
f 8/29/1 1/30/4 82/31/4 89/32/1
f 13/23/15 10/22/3 11/33/17 14/34/18
f 14/34/18 11/33/17 9/35/19 12/36/20
f 16/27/6 13/26/15 14/37/18 17/38/21
f 17/38/21 14/37/18 12/39/20 15/40/22
f 19/7/7 16/6/6 17/41/21 20/42/23
f 20/42/23 17/41/21 15/43/22 18/44/24
f 22/9/9 19/7/7 20/42/23 23/45/25
f 23/45/25 20/42/23 18/44/24 21/46/26
f 25/11/11 22/9/9 23/45/25 26/47/27
f 26/47/27 23/45/25 21/46/26 24/48/28
f 28/15/13 25/14/11 26/49/27 29/50/29
f 29/50/29 26/49/27 24/51/28 27/52/30
f 31/19/2 28/18/13 29/53/29 32/54/31
f 32/54/31 29/53/29 27/55/30 30/56/32
f 10/3/3 31/2/2 32/57/31 11/58/17
f 11/58/17 32/57/31 30/59/32 9/60/19
f 21/61/26 18/62/24 49/63/33
f 2/64/34 1/65/34 33/66/34 34/67/34
f 3/68/34 2/64/34 34/67/34 35/69/34
f 4/70/34 3/68/34 35/69/34 36/71/34
f 5/72/34 4/70/34 36/71/34 37/73/34
f 6/74/34 5/72/34 37/73/34 38/75/34
f 7/76/34 6/74/34 38/75/34 39/77/34
f 8/78/34 7/76/34 39/77/34 40/79/34
f 1/65/34 8/78/34 40/79/34 33/66/34
f 41/80/10 42/81/12 94/81/12 91/80/10
f 6/82/12 7/83/14 88/84/14 87/85/12
f 4/86/8 5/87/10 86/88/10 85/89/8
f 2/90/16 3/91/5 84/92/5 83/93/16
f 7/94/14 8/29/1 89/32/1 88/95/14
f 5/87/10 6/96/12 87/97/12 86/88/10
f 3/98/5 4/86/8 85/89/8 84/99/5
f 1/30/4 2/100/16 83/101/16 82/31/4
f 43/102/14 44/103/1 92/103/1 95/102/14
f 45/104/4 46/105/16 98/105/16 93/104/4
f 47/106/5 48/107/8 97/107/8 96/106/5
f 42/81/12 43/102/14 95/102/14 94/81/12
f 44/103/1 45/104/4 93/104/4 92/103/1
f 46/105/16 47/106/5 96/106/5 98/105/16
f 48/107/8 41/80/10 91/80/10 97/107/8
f 9/108/19 30/109/32 49/63/33
f 12/110/20 9/108/19 49/63/33
f 24/111/28 21/61/26 49/63/33
f 15/112/22 12/110/20 49/63/33
f 27/113/30 24/111/28 49/63/33
f 18/62/24 15/112/22 49/63/33
f 30/109/32 27/113/30 49/63/33
f 99/114/16 53/115/16 57/116/5 100/117/5
f 68/118/16 52/119/16 56/120/5 72/121/5
f 105/122/4 50/123/4 53/124/16 99/125/16
f 67/126/4 51/127/4 52/128/16 68/129/16
f 104/130/14 65/131/14 54/132/1 106/133/1
f 80/134/14 64/135/14 55/136/1 71/137/1
f 103/138/12 63/139/12 65/140/14 104/141/14
f 78/142/12 62/143/12 64/144/14 80/145/14
f 102/146/10 61/147/10 63/148/12 103/149/12
f 76/150/10 60/151/10 62/152/12 78/153/12
f 101/154/8 59/155/8 61/147/10 102/146/10
f 74/156/8 58/157/8 60/151/10 76/150/10
f 100/158/5 57/159/5 59/155/8 101/154/8
f 72/160/5 56/161/5 58/157/8 74/156/8
f 106/162/1 54/163/1 50/164/4 105/165/4
f 71/166/1 55/167/1 51/168/4 67/169/4
f 54/170/1 70/171/1 66/172/4 50/173/4
f 70/174/1 71/175/1 67/176/4 66/177/4
f 57/178/5 73/179/5 75/180/8 59/181/8
f 73/182/5 72/183/5 74/184/8 75/185/8
f 59/181/8 75/180/8 77/186/10 61/187/10
f 75/185/8 74/184/8 76/188/10 77/189/10
f 61/187/10 77/186/10 79/190/12 63/191/12
f 77/189/10 76/188/10 78/192/12 79/193/12
f 63/194/12 79/195/12 81/196/14 65/197/14
f 79/198/12 78/199/12 80/200/14 81/201/14
f 65/202/14 81/203/14 70/204/1 54/205/1
f 81/206/14 80/207/14 71/208/1 70/209/1
f 50/210/4 66/211/4 69/212/16 53/213/16
f 66/214/4 67/215/4 68/216/16 69/217/16
f 53/218/16 69/219/16 73/220/5 57/221/5
f 69/222/16 68/223/16 72/224/5 73/225/5
f 42/226/34 41/227/34 82/228/34 83/229/34
f 43/230/34 42/226/34 83/229/34 84/231/34
f 44/232/34 43/230/34 84/231/34 85/233/34
f 45/234/34 44/232/34 85/233/34 86/235/34
f 46/236/34 45/234/34 86/235/34 87/237/34
f 47/238/34 46/236/34 87/237/34 88/239/34
f 48/240/34 47/238/34 88/239/34 89/241/34
f 41/227/34 48/240/34 89/241/34 82/228/34
f 92/242/34 93/243/34 90/244/34
f 94/245/34 95/246/34 90/244/34
f 96/247/34 97/248/34 90/244/34
f 93/243/34 98/249/34 90/244/34
f 95/246/34 92/242/34 90/244/34
f 91/250/34 94/245/34 90/244/34
f 97/248/34 91/250/34 90/244/34
f 98/249/34 96/247/34 90/244/34
f 40/251/1 106/162/1 105/165/4 33/252/4
f 35/253/5 100/158/5 101/154/8 36/254/8
f 36/254/8 101/154/8 102/146/10 37/255/10
f 37/255/10 102/146/10 103/149/12 38/256/12
f 38/257/12 103/138/12 104/141/14 39/258/14
f 39/259/14 104/130/14 106/133/1 40/260/1
f 33/261/4 105/122/4 99/125/16 34/262/16
f 34/263/16 99/114/16 100/117/5 35/264/5
f 107/265/35 108/266/35 110/267/35 109/268/35
f 109/269/34 110/270/34 114/271/34 113/272/34
f 113/273/36 114/274/36 112/275/36 111/276/36
f 111/277/37 112/278/38 108/279/38 107/280/37
f 114/281/39 110/282/39 108/283/38 112/284/38
f 115/285/40 116/286/40 118/287/40 117/288/40
f 117/289/34 118/290/34 122/291/34 121/292/34
f 121/293/41 122/294/41 120/295/41 119/296/41
f 119/297/42 120/298/43 116/299/43 115/300/42
f 122/301/44 118/302/44 116/303/43 120/304/43
f 123/305/45 124/306/45 126/307/45 125/308/45
f 125/309/34 126/310/34 130/311/34 129/312/34
f 129/313/46 130/314/46 128/315/46 127/316/46
f 127/317/47 128/318/48 124/319/48 123/320/47
f 130/321/49 126/322/49 124/323/48 128/324/48
f 131/325/50 132/326/50 134/327/50 133/328/50
f 133/329/34 134/330/34 138/331/34 137/332/34
f 137/333/51 138/334/51 136/335/51 135/336/51
f 135/337/52 136/338/53 132/339/53 131/340/52
f 138/341/54 134/342/54 132/343/53 136/344/53
