# Blender 4.1.1
# www.blender.org
mtllib Rocket.mtl
o Solo.MissileMesh.BlueMoon
v 20.800001 1.300000 -12.000000
v 20.915470 -0.000000 -12.000000
v 20.900000 1.300000 -11.826795
v 20.957735 -0.000000 -11.926795
v 21.100000 1.300000 -11.826795
v 21.042265 -0.000000 -11.926795
v 21.200001 1.300000 -12.000000
v 21.084530 -0.000000 -12.000000
v 21.100000 1.300000 -12.173205
v 21.042265 -0.000000 -12.073205
v 20.900000 1.300000 -12.173205
v 20.957735 -0.000000 -12.073205
v 21.000000 1.500000 -12.000000
v 20.900000 -0.000000 -11.826795
v 20.799999 -0.000000 -12.000000
v 21.100000 -0.000000 -11.826795
v 21.200001 -0.000000 -12.000000
v 21.100000 -0.000000 -12.173205
v 20.900000 -0.000000 -12.173205
v 21.170000 -0.000000 -11.950000
v 21.170000 0.100000 -11.950000
v 21.170000 0.100000 -12.050000
v 21.299999 0.100000 -12.000000
v 21.170000 -0.000000 -12.050000
v 21.299999 -0.000000 -12.000000
v 21.049999 -0.000000 -12.173205
v 21.049999 0.100000 -12.173205
v 20.950001 0.100000 -12.173205
v 21.000000 0.100000 -12.300000
v 20.950001 -0.000000 -12.173205
v 21.000000 -0.000000 -12.300000
v 20.950001 -0.000000 -11.826795
v 20.950001 0.100000 -11.826795
v 21.049999 0.100000 -11.826795
v 21.000000 0.100000 -11.700000
v 21.049999 -0.000000 -11.826795
v 21.000000 -0.000000 -11.700000
v 21.200001 0.100000 -12.000000
v 21.200001 -0.000000 -12.000000
v 20.830000 -0.000000 -12.050000
v 20.830000 0.100000 -12.050000
v 20.830000 0.100000 -11.950000
v 20.700001 0.100000 -12.000000
v 20.830000 -0.000000 -11.950000
v 20.700001 -0.000000 -12.000000
v 20.799999 0.100000 -12.000000
vn -1.0000 -0.0000 -0.0000
vn -0.5000 -0.0000 0.8660
vn 0.5000 -0.0000 0.8660
vn 1.0000 -0.0000 -0.0000
vn 0.5000 -0.0000 -0.8660
vn -0.0000 -1.0000 -0.0000
vn -0.5000 -0.0000 -0.8660
vn 0.3536 0.7071 0.6124
vn 0.7071 0.7071 -0.0000
vn -0.0000 1.0000 -0.0000
vn -0.3536 0.7071 -0.6124
vn -0.7071 0.7071 -0.0000
vn 0.3536 0.7071 -0.6124
vn -0.3536 0.7071 0.6124
vn 0.3590 -0.0000 -0.9333
vn -0.8575 -0.0000 0.5145
vn 0.3590 -0.0000 0.9333
vn -0.9303 -0.0000 -0.3668
vn -0.0000 -0.0000 1.0000
vn 0.9303 -0.0000 -0.3668
vn 0.9303 -0.0000 0.3668
vn -0.0000 -0.0000 -1.0000
vn -0.9303 -0.0000 0.3668
vn -0.8575 -0.0000 -0.5145
vn -0.3590 -0.0000 0.9333
vn 0.8575 -0.0000 -0.5145
vn -0.3590 -0.0000 -0.9333
vn 0.8575 -0.0000 0.5145
vt 0.001205 0.980021
vt 0.001205 0.980364
vt 0.001176 0.980364
vt 0.001176 0.980021
vt 0.001092 0.976406
vt 0.001092 0.976063
vt 0.001145 0.976063
vt 0.001145 0.976406
vt 0.001145 0.980312
vt 0.001145 0.979969
vt 0.001176 0.979969
vt 0.001176 0.980312
vt 0.010858 0.997600
vt 0.010858 0.997943
vt 0.010826 0.997943
vt 0.010826 0.997600
vt 0.001526 0.967145
vt 0.001546 0.967156
vt 0.001546 0.967179
vt 0.001526 0.967190
vt 0.010774 0.997943
vt 0.010774 0.997600
vt 0.011023 0.997600
vt 0.011023 0.997943
vt 0.010970 0.997943
vt 0.010970 0.997600
vt 0.001579 0.980785
vt 0.001534 0.980758
vt 0.001579 0.980732
vt 0.010995 0.997547
vt 0.011299 0.998336
vt 0.011299 0.998284
vt 0.011345 0.998310
vt 0.001124 0.976458
vt 0.010805 0.997547
vt 0.000717 0.980936
vt 0.000671 0.980962
vt 0.000671 0.980910
vt 0.001526 0.973005
vt 0.001507 0.973016
vt 0.001481 0.973001
vt 0.001526 0.972974
vt 0.001507 0.973038
vt 0.001481 0.973053
vt 0.001526 0.973049
vt 0.001526 0.973080
vt 0.001546 0.973038
vt 0.001572 0.973053
vt 0.001546 0.973016
vt 0.001572 0.973001
vt 0.011236 0.998174
vt 0.011236 0.998138
vt 0.011245 0.998150
vt 0.001519 0.972784
vt 0.001510 0.972759
vt 0.001519 0.972747
vt 0.001457 0.980918
vt 0.001457 0.980953
vt 0.001430 0.980953
vt 0.001430 0.980918
vt 0.001076 0.980929
vt 0.001084 0.980929
vt 0.001084 0.980956
vt 0.001076 0.980956
vt 0.001599 0.975059
vt 0.001599 0.975095
vt 0.001572 0.975095
vt 0.001572 0.975059
vt 0.011309 0.998138
vt 0.011309 0.998174
vt 0.011285 0.998164
vt 0.001612 0.973106
vt 0.001625 0.973140
vt 0.001599 0.973140
vt 0.011169 0.998532
vt 0.011169 0.998496
vt 0.011196 0.998496
vt 0.011196 0.998532
vt 0.010826 0.998534
vt 0.010800 0.998534
vt 0.010800 0.998507
vt 0.010826 0.998507
vt 0.010597 0.998247
vt 0.010615 0.998247
vt 0.010615 0.998273
vt 0.010597 0.998273
vt 0.001625 0.976439
vt 0.001612 0.976406
vt 0.001638 0.976406
vt 0.001626 0.972786
vt 0.001602 0.972759
vt 0.001626 0.972750
vt 0.000832 0.980642
vt 0.000849 0.980642
vt 0.000849 0.980669
vt 0.000832 0.980669
vt 0.001008 0.980929
vt 0.001034 0.980929
vt 0.001034 0.980956
vt 0.001008 0.980956
vt 0.001480 0.980918
vt 0.001480 0.980944
vt 0.001457 0.980944
vt 0.001060 0.980929
vt 0.001060 0.980956
vt 0.001495 0.972757
vt 0.011260 0.998147
vt 0.001457 0.975059
vt 0.001457 0.975094
vt 0.001430 0.975094
vt 0.001430 0.975059
vt 0.001599 0.980919
vt 0.001599 0.980954
vt 0.001572 0.980954
vt 0.001572 0.980919
vt 0.001507 0.967156
vt 0.001507 0.967179
s 1
usemtl MasterMat
f 1/1/1 15/2/1 14/3/2 3/4/2
f 3/5/2 14/6/2 16/7/3 5/8/3
f 5/9/3 16/10/3 17/11/4 7/12/4
f 7/13/4 17/14/4 18/15/5 9/16/5
f 2/17/6 12/18/6 10/19/6 8/20/6
f 9/16/5 18/15/5 19/21/7 11/22/7
f 11/23/7 19/24/7 15/25/1 1/26/1
f 5/27/8 7/28/9 13/29/10
f 11/23/11 1/26/12 13/30/10
f 7/31/9 9/32/13 13/33/10
f 3/5/14 5/8/8 13/34/10
f 9/16/13 11/22/11 13/35/10
f 1/36/12 3/37/14 13/38/10
f 2/39/6 4/40/6 14/41/6 15/42/6
f 4/40/6 6/43/6 16/44/6 14/41/6
f 6/43/6 8/45/6 17/46/6 16/44/6
f 8/45/6 10/47/6 18/48/6 17/46/6
f 10/47/6 12/49/6 19/50/6 18/48/6
f 12/49/6 2/39/6 15/42/6 19/50/6
f 23/51/10 22/52/10 38/53/10
f 25/54/6 39/55/6 24/56/6
f 22/57/15 23/58/15 25/59/15 24/60/15
f 38/61/1 22/62/16 24/63/16 39/64/1
f 23/65/17 21/66/17 20/67/17 25/68/17
f 29/69/10 28/70/10 27/71/10
f 31/72/6 26/73/6 30/74/6
f 28/75/18 29/76/18 31/77/18 30/78/18
f 27/79/19 28/80/19 30/81/19 26/82/19
f 29/83/20 27/84/20 26/85/20 31/86/20
f 35/87/10 34/88/10 33/89/10
f 37/90/6 32/91/6 36/92/6
f 34/93/21 35/94/21 37/95/21 36/96/21
f 33/97/22 34/98/22 36/99/22 32/100/22
f 35/57/23 33/101/23 32/102/23 37/103/23
f 21/104/24 38/61/1 39/64/1 20/105/24
f 25/54/6 20/106/6 39/55/6
f 23/51/10 38/53/10 21/107/10
f 43/51/10 42/52/10 46/53/10
f 45/54/6 15/55/6 44/56/6
f 42/108/25 43/109/25 45/110/25 44/111/25
f 46/61/4 42/62/26 44/63/26 15/64/4
f 43/112/27 41/113/27 40/114/27 45/115/27
f 41/104/28 46/61/4 15/64/4 40/105/28
f 45/54/6 40/106/6 15/55/6
f 43/51/10 46/53/10 41/107/10
f 4/116/6 2/17/6 8/20/6 6/117/6
